<svg width="256" height="256" viewBox="0 0 256 256" fill="none" xmlns="http://www.w3.org/2000/svg">
<g clip-path="url(#clip0_17_7)">
<path d="M256 0H0V256H256V0Z" fill="black"/>
<path d="M123.514 190.6C109.114 190.6 97.9141 186.133 89.9141 177.2C81.9141 168.267 77.9141 154.8 77.9141 136.8V52.2C77.9141 41.8 82.7807 36.6 92.5141 36.6C101.447 36.6 105.914 41.8 105.914 52.2V69.4C105.914 74.6 105.781 78.8667 105.514 82.2C105.381 85.5333 105.047 88.4667 104.514 91C104.114 93.4 103.447 96 102.514 98.8C105.047 94.6667 108.514 91.7333 112.914 90C117.447 88.2667 123.181 87.4 130.114 87.4C138.114 87.4 145.181 88.9333 151.314 92C157.447 94.9333 162.247 99.9333 165.714 107C169.181 114.067 170.914 123.6 170.914 135.6C170.914 153.6 166.647 167.267 158.114 176.6C149.714 185.933 138.181 190.6 123.514 190.6ZM124.914 166.6C130.514 166.6 134.847 164.6 137.914 160.6C141.114 156.6 142.714 149.133 142.714 138.2C142.714 130.867 141.981 125.333 140.514 121.6C139.181 117.733 137.181 115.067 134.514 113.6C131.847 112.133 128.647 111.4 124.914 111.4C121.181 111.4 117.981 112.133 115.314 113.6C112.647 115.067 110.581 117.733 109.114 121.6C107.781 125.333 107.114 130.867 107.114 138.2C107.114 149.133 108.647 156.6 111.714 160.6C114.914 164.6 119.314 166.6 124.914 166.6Z" fill="white"/>
<path d="M81.5635 235.256C79.2595 235.256 77.4675 234.541 76.1875 233.112C74.9075 231.683 74.2675 229.528 74.2675 226.648V213.112C74.2675 211.448 75.0462 210.616 76.6035 210.616C78.0328 210.616 78.7475 211.448 78.7475 213.112V215.864C78.7475 216.696 78.7262 217.379 78.6835 217.912C78.6622 218.445 78.6088 218.915 78.5235 219.32C78.4595 219.704 78.3528 220.12 78.2035 220.568C78.6088 219.907 79.1635 219.437 79.8675 219.16C80.5928 218.883 81.5102 218.744 82.6195 218.744C83.8995 218.744 85.0302 218.989 86.0115 219.48C86.9928 219.949 87.7608 220.749 88.3155 221.88C88.8702 223.011 89.1475 224.536 89.1475 226.456C89.1475 229.336 88.4648 231.523 87.0995 233.016C85.7555 234.509 83.9102 235.256 81.5635 235.256ZM81.7875 231.416C82.6835 231.416 83.3768 231.096 83.8675 230.456C84.3795 229.816 84.6355 228.621 84.6355 226.872C84.6355 225.699 84.5182 224.813 84.2835 224.216C84.0702 223.597 83.7502 223.171 83.3235 222.936C82.8968 222.701 82.3848 222.584 81.7875 222.584C81.1902 222.584 80.6782 222.701 80.2515 222.936C79.8248 223.171 79.4942 223.597 79.2595 224.216C79.0462 224.813 78.9395 225.699 78.9395 226.872C78.9395 228.621 79.1848 229.816 79.6755 230.456C80.1875 231.096 80.8915 231.416 81.7875 231.416ZM96.8093 233.112C96.8093 234.541 96.0626 235.256 94.5693 235.256C93.8439 235.256 93.2679 235.075 92.8413 234.712C92.4146 234.349 92.2013 233.816 92.2013 233.112V213.112C92.2013 211.448 92.9799 210.616 94.5373 210.616C96.0733 210.616 96.8413 211.448 96.8413 213.112V216.536C96.8413 217.133 96.7773 217.709 96.6493 218.264C96.5213 218.819 96.3079 219.395 96.0093 219.992C96.3719 219.544 96.8519 219.224 97.4493 219.032C98.0466 218.84 98.7399 218.744 99.5293 218.744C100.937 218.744 102.164 219.021 103.209 219.576C104.255 220.131 105.065 220.909 105.641 221.912C106.239 222.893 106.537 224.067 106.537 225.432V233.112C106.537 234.541 105.791 235.256 104.297 235.256C103.572 235.256 102.996 235.075 102.569 234.712C102.143 234.349 101.929 233.816 101.929 233.112V225.624C101.929 224.621 101.695 223.864 101.225 223.352C100.777 222.84 100.148 222.584 99.3373 222.584C98.5479 222.584 97.9293 222.851 97.4813 223.384C97.0333 223.896 96.8093 224.643 96.8093 225.624V233.112ZM112.286 235.256C111.455 235.256 110.857 235.032 110.495 234.584C110.153 234.136 109.983 233.528 109.983 232.76V213.112C109.983 212.344 110.153 211.736 110.495 211.288C110.857 210.84 111.455 210.616 112.286 210.616C113.119 210.616 113.705 210.84 114.047 211.288C114.409 211.736 114.591 212.344 114.591 213.112V225.016C115.721 224.333 116.724 223.565 117.599 222.712C118.473 221.837 119.071 221.005 119.391 220.216C119.689 219.491 120.116 219 120.671 218.744C121.225 218.488 121.833 218.52 122.495 218.84C123.412 219.288 123.839 219.971 123.775 220.888C123.753 221.656 123.401 222.52 122.719 223.48C122.057 224.419 121.236 225.229 120.255 225.912C121.492 226.339 122.484 227.117 123.231 228.248C123.999 229.357 124.383 230.968 124.383 233.08C124.383 234.531 123.625 235.256 122.111 235.256C120.553 235.256 119.775 234.531 119.775 233.08C119.775 231.523 119.529 230.381 119.039 229.656C118.548 228.931 117.897 228.568 117.087 228.568C116.34 228.568 115.732 228.845 115.263 229.4C114.815 229.955 114.591 230.915 114.591 232.28C114.591 233.517 114.409 234.328 114.047 234.712C113.684 235.075 113.097 235.256 112.286 235.256ZM132.032 233.112C132.032 234.541 131.285 235.256 129.792 235.256C129.066 235.256 128.49 235.075 128.064 234.712C127.637 234.349 127.424 233.816 127.424 233.112V213.112C127.424 212.344 127.594 211.736 127.936 211.288C128.298 210.84 128.896 210.616 129.728 210.616C130.56 210.616 131.146 210.84 131.488 211.288C131.85 211.736 132.032 212.344 132.032 213.112V233.112ZM143.471 235.256C141.338 235.256 139.663 234.904 138.447 234.2C137.253 233.496 136.399 232.525 135.887 231.288C135.397 230.051 135.151 228.632 135.151 227.032C135.151 224.088 135.802 221.976 137.103 220.696C138.405 219.395 140.154 218.744 142.351 218.744C143.674 218.744 144.847 218.968 145.871 219.416C146.895 219.864 147.695 220.504 148.271 221.336C148.847 222.147 149.135 223.139 149.135 224.312C149.135 227.725 146.703 229.432 141.839 229.432H139.983C140.154 230.093 140.431 230.616 140.815 231C141.221 231.363 141.925 231.544 142.927 231.544C143.482 231.544 143.93 231.512 144.271 231.448C144.613 231.384 144.933 231.32 145.231 231.256C145.551 231.192 145.914 231.16 146.319 231.16C146.895 231.16 147.354 231.267 147.695 231.48C148.037 231.672 148.207 232.077 148.207 232.696C148.207 233.571 147.823 234.221 147.055 234.648C146.309 235.053 145.114 235.256 143.471 235.256ZM139.759 227.064C139.93 226.829 140.122 226.68 140.335 226.616C140.549 226.531 140.879 226.488 141.327 226.488C142.586 226.488 143.45 226.371 143.919 226.136C144.41 225.88 144.655 225.432 144.655 224.792C144.655 223.981 144.431 223.363 143.983 222.936C143.535 222.488 142.97 222.264 142.287 222.264C141.498 222.264 140.879 222.595 140.431 223.256C139.983 223.917 139.759 225.187 139.759 227.064ZM154.225 235.256C152.689 235.256 151.921 234.531 151.921 233.08V225.4C151.921 223.352 152.571 221.731 153.873 220.536C155.195 219.341 156.934 218.744 159.089 218.744C161.243 218.744 162.971 219.341 164.273 220.536C165.595 221.731 166.257 223.352 166.257 225.4V233.08C166.257 234.531 165.489 235.256 163.953 235.256C162.417 235.256 161.649 234.531 161.649 233.08V225.656C161.649 224.653 161.425 223.896 160.977 223.384C160.529 222.851 159.899 222.584 159.089 222.584C158.278 222.584 157.649 222.851 157.201 223.384C156.753 223.896 156.529 224.653 156.529 225.656V233.08C156.529 234.531 155.761 235.256 154.225 235.256ZM175.107 235.256C171.096 235.256 169.091 234.371 169.091 232.6C169.091 232.045 169.24 231.608 169.539 231.288C169.838 230.968 170.232 230.808 170.723 230.808C170.936 230.808 171.139 230.84 171.331 230.904C171.544 230.947 171.95 231.064 172.547 231.256C172.803 231.341 173.144 231.427 173.571 231.512C173.998 231.597 174.414 231.64 174.819 231.64C175.587 231.64 176.131 231.544 176.451 231.352C176.771 231.16 176.931 230.84 176.931 230.392C176.931 230.029 176.846 229.752 176.675 229.56C176.504 229.347 176.142 229.144 175.587 228.952C175.032 228.76 174.168 228.493 172.995 228.152C171.928 227.853 171.064 227.32 170.403 226.552C169.763 225.763 169.443 224.792 169.443 223.64C169.443 222.019 170.03 220.781 171.203 219.928C172.376 219.075 173.987 218.648 176.035 218.648C177.571 218.648 178.776 218.861 179.651 219.288C180.526 219.715 180.963 220.333 180.963 221.144C180.963 221.656 180.814 222.083 180.515 222.424C180.216 222.765 179.811 222.936 179.299 222.936C179.086 222.936 178.83 222.904 178.531 222.84C178.254 222.776 177.912 222.691 177.507 222.584C177.208 222.477 176.888 222.392 176.547 222.328C176.227 222.264 175.886 222.232 175.523 222.232C174.499 222.232 173.987 222.595 173.987 223.32C173.987 223.747 174.19 224.109 174.595 224.408C175 224.685 175.779 224.995 176.931 225.336C178.51 225.805 179.672 226.435 180.419 227.224C181.166 227.992 181.539 229.016 181.539 230.296C181.539 231.789 180.963 232.995 179.811 233.912C178.68 234.808 177.112 235.256 175.107 235.256Z" fill="white"/>
</g>
<defs>
<clipPath id="clip0_17_7">
<rect width="256" height="256" rx="50" fill="white"/>
</clipPath>
</defs>
</svg>
